<?xml version="1.0" encoding="iso-8859-1"?>
<!-- Uploaded to: SVG Repo, www.svgrepo.com, Generator: SVG Repo Mixer Tools -->
<!DOCTYPE svg PUBLIC "-//W3C//DTD SVG 1.1//EN" "http://www.w3.org/Graphics/SVG/1.1/DTD/svg11.dtd">
<svg fill="#c19e66" version="1.1" id="Capa_1" xmlns="http://www.w3.org/2000/svg" xmlns:xlink="http://www.w3.org/1999/xlink" 
	 width="800px" height="800px" viewBox="0 0 27.332 27.332"
	 xml:space="preserve">
<g>
	<path d="M25.832,0H1.5C0.671,0,0,0.671,0,1.5v24.332c0,0.829,0.671,1.5,1.5,1.5h24.332c0.828,0,1.5-0.671,1.5-1.5V1.5
		C27.332,0.671,26.66,0,25.832,0z M24.332,24.332H3V3h21.332V24.332z M4.999,13.666c0-1.104,0.896-2,2-2h13.334c1.104,0,2,0.896,2,2
		c0,1.104-0.896,2-2,2H6.999C5.895,15.666,4.999,14.77,4.999,13.666z"/>
</g>
</svg>